# xmcd
#
# Track frame offsets:
#	150
#	70233
#	90988
#	140016
#	176164
#	192666
#	316131
#
# Disc length: 4398 seconds
#
# Revision: 1
# Processed by: cddbd v1.5.2PL0 Copyright (c) Steve Scherf et al.
# Submitted via: audiograbber 1.83.01
#
DISCID=62112c07
DTITLE=Grateful Dead - 68-08-23 Shrine Auditorium, Los Angeles CA
DYEAR=1900
DGENRE=
TTITLE0=Dark Star
TTITLE1=St Stephen
TTITLE2=The Eleven
TTITLE3=Death Don't Have No Mercy
TTITLE4=Alligator
TTITLE5=Drums > Alligator
TTITLE6=Caution
EXTD=
EXTT0=
EXTT1=
EXTT2=
EXTT3=
EXTT4=
EXTT5=
EXTT6=
PLAYORDER=
